<mxfile host="app.diagrams.net" agent="Mozilla/5.0 (X11; Linux x86_64) AppleWebKit/537.36 (KHTML, like Gecko) Chrome/131.0.0.0 Safari/537.36" version="28.0.5">
  <diagram name="Page-1" id="4eTFOL3CLhrSXV62z4rw">
    <mxGraphModel dx="364" dy="131" grid="1" gridSize="10" guides="1" tooltips="1" connect="1" arrows="1" fold="1" page="1" pageScale="1" pageWidth="850" pageHeight="1100" math="0" shadow="0">
      <root>
        <mxCell id="0" />
        <mxCell id="1" parent="0" />
        <mxCell id="-5qHYhKTTx6ZgJ0ORQ07-1" value="" style="rounded=0;whiteSpace=wrap;html=1;fillStyle=solid;strokeColor=#000000;strokeWidth=3;fillColor=none;" parent="1" vertex="1">
          <mxGeometry x="90" y="261" width="620" height="450" as="geometry" />
        </mxCell>
        <mxCell id="-5qHYhKTTx6ZgJ0ORQ07-2" value="&lt;font style=&quot;font-size: 15px;&quot;&gt;&lt;i&gt;&#39;0&#39;&lt;/i&gt;&lt;/font&gt;" style="text;strokeColor=none;align=center;fillColor=none;html=1;verticalAlign=middle;whiteSpace=wrap;rounded=0;fontSize=17;" parent="1" vertex="1">
          <mxGeometry x="551" y="465" width="21" height="30" as="geometry" />
        </mxCell>
        <mxCell id="-5qHYhKTTx6ZgJ0ORQ07-3" value="&lt;font size=&quot;1&quot; color=&quot;#000000&quot;&gt;&lt;b style=&quot;font-size: 18px;&quot;&gt;LSB Register&lt;/b&gt;&lt;/font&gt;" style="verticalAlign=top;align=center;shape=cube;size=10;direction=south;fontStyle=0;html=1;boundedLbl=1;spacingLeft=5;rounded=1;fillColor=#95F0E1;strokeColor=#10739e;strokeWidth=2;" parent="1" vertex="1">
          <mxGeometry x="218" y="603" width="260" height="100" as="geometry" />
        </mxCell>
        <mxCell id="-5qHYhKTTx6ZgJ0ORQ07-4" value="&lt;font style=&quot;font-size: 18px;&quot; color=&quot;#000000&quot;&gt;&amp;nbsp; &amp;nbsp; &amp;nbsp; &amp;nbsp; &amp;nbsp; &amp;nbsp;&amp;nbsp;&lt;b&gt;Mask Decoder&lt;/b&gt;&lt;/font&gt;" style="verticalAlign=top;align=left;shape=cube;size=10;direction=south;fontStyle=0;html=1;boundedLbl=1;spacingLeft=5;rounded=1;fillColor=#95F0E1;strokeColor=#10739e;strokeWidth=2;" parent="1" vertex="1">
          <mxGeometry x="216" y="297" width="260" height="100" as="geometry" />
        </mxCell>
        <mxCell id="-5qHYhKTTx6ZgJ0ORQ07-5" value="&lt;font style=&quot;font-size: 15px;&quot;&gt;Mask1&lt;/font&gt;" style="verticalAlign=top;align=center;shape=cube;size=10;direction=south;html=1;boundedLbl=1;spacingLeft=5;rounded=1;fillColor=#7CFA9B;strokeColor=#000000;fontColor=#000000;" parent="-5qHYhKTTx6ZgJ0ORQ07-4" vertex="1">
          <mxGeometry width="100" height="40" relative="1" as="geometry">
            <mxPoint x="24" y="45" as="offset" />
          </mxGeometry>
        </mxCell>
        <mxCell id="-5qHYhKTTx6ZgJ0ORQ07-6" value="&lt;font style=&quot;font-size: 15px;&quot;&gt;Mask2&lt;/font&gt;" style="verticalAlign=top;align=center;shape=cube;size=10;direction=south;html=1;boundedLbl=1;spacingLeft=5;rounded=1;fillColor=#7CFA9B;strokeColor=#000000;fontColor=#000000;" parent="-5qHYhKTTx6ZgJ0ORQ07-4" vertex="1">
          <mxGeometry width="100" height="40" relative="1" as="geometry">
            <mxPoint x="134" y="44" as="offset" />
          </mxGeometry>
        </mxCell>
        <mxCell id="-5qHYhKTTx6ZgJ0ORQ07-7" value="&lt;font size=&quot;1&quot; color=&quot;#000000&quot;&gt;&lt;b style=&quot;font-size: 18px;&quot;&gt;&amp;nbsp; &amp;nbsp; &amp;nbsp; &amp;nbsp; &amp;nbsp; &amp;nbsp; MSB Decoder&lt;/b&gt;&lt;/font&gt;" style="verticalAlign=top;align=left;shape=cube;size=10;direction=south;fontStyle=0;html=1;boundedLbl=1;spacingLeft=5;rounded=1;fillColor=#95F0E1;strokeColor=#10739e;strokeWidth=2;" parent="1" vertex="1">
          <mxGeometry x="216" y="478" width="260" height="100" as="geometry" />
        </mxCell>
        <mxCell id="-5qHYhKTTx6ZgJ0ORQ07-8" style="html=1;fontColor=#000000;shadow=0;strokeColor=#006EAF;strokeWidth=4;rounded=0;" parent="1" source="-5qHYhKTTx6ZgJ0ORQ07-3" edge="1">
          <mxGeometry relative="1" as="geometry">
            <mxPoint x="560" y="654" as="targetPoint" />
            <mxPoint x="506.4" y="653.86" as="sourcePoint" />
          </mxGeometry>
        </mxCell>
        <mxCell id="-5qHYhKTTx6ZgJ0ORQ07-9" value="" style="shape=trapezoid;perimeter=trapezoidPerimeter;whiteSpace=wrap;html=1;fixedSize=1;strokeColor=#10739e;fillColor=#95F0E1;direction=south;strokeWidth=2;" parent="1" vertex="1">
          <mxGeometry x="650" y="423" width="42" height="279" as="geometry" />
        </mxCell>
        <mxCell id="-5qHYhKTTx6ZgJ0ORQ07-10" style="html=1;fontColor=#000000;shadow=0;strokeColor=#006EAF;strokeWidth=4;entryX=0;entryY=0.5;entryDx=0;entryDy=0;rounded=0;" parent="1" target="-5qHYhKTTx6ZgJ0ORQ07-9" edge="1">
          <mxGeometry relative="1" as="geometry">
            <mxPoint x="656" y="413" as="targetPoint" />
            <mxPoint x="477" y="359" as="sourcePoint" />
            <Array as="points">
              <mxPoint x="671" y="358" />
            </Array>
          </mxGeometry>
        </mxCell>
        <mxCell id="-5qHYhKTTx6ZgJ0ORQ07-11" style="edgeStyle=none;html=1;fontColor=#000000;shadow=0;strokeColor=#006EAF;strokeWidth=4;" parent="1" edge="1">
          <mxGeometry relative="1" as="geometry">
            <mxPoint x="810" y="553" as="targetPoint" />
            <mxPoint x="691" y="552.9049111807733" as="sourcePoint" />
            <Array as="points">
              <mxPoint x="714" y="553" />
            </Array>
          </mxGeometry>
        </mxCell>
        <mxCell id="-5qHYhKTTx6ZgJ0ORQ07-12" value="" style="endArrow=classicThin;startArrow=none;endFill=1;startFill=0;endSize=8;html=1;verticalAlign=bottom;labelBackgroundColor=none;strokeWidth=2;shadow=0;sketch=0;fontColor=#000000;fillColor=#008a00;strokeColor=#005700;" parent="1" edge="1">
          <mxGeometry width="160" relative="1" as="geometry">
            <mxPoint x="60" y="493" as="sourcePoint" />
            <mxPoint x="218" y="493" as="targetPoint" />
          </mxGeometry>
        </mxCell>
        <mxCell id="-5qHYhKTTx6ZgJ0ORQ07-13" value="" style="endArrow=classicThin;startArrow=none;endFill=1;startFill=0;endSize=8;html=1;verticalAlign=bottom;labelBackgroundColor=none;strokeWidth=2;shadow=0;sketch=0;fontColor=#000000;fillColor=#008a00;strokeColor=#005700;" parent="1" edge="1">
          <mxGeometry width="160" relative="1" as="geometry">
            <mxPoint x="60" y="518" as="sourcePoint" />
            <mxPoint x="216" y="517.5" as="targetPoint" />
          </mxGeometry>
        </mxCell>
        <mxCell id="-5qHYhKTTx6ZgJ0ORQ07-14" value="&lt;font size=&quot;1&quot; color=&quot;#000000&quot;&gt;&lt;b style=&quot;font-size: 15px;&quot;&gt;Selector&lt;/b&gt;&lt;/font&gt;" style="text;strokeColor=none;align=center;fillColor=none;html=1;verticalAlign=middle;whiteSpace=wrap;rounded=0;direction=west;spacingRight=0;labelPosition=center;verticalLabelPosition=middle;flipV=0;flipH=1;rotation=90;" parent="1" vertex="1">
          <mxGeometry x="638" y="548" width="60" height="14" as="geometry" />
        </mxCell>
        <mxCell id="-5qHYhKTTx6ZgJ0ORQ07-15" style="html=1;fontColor=#000000;shadow=0;strokeColor=#3700CC;fillColor=#6a00ff;strokeWidth=2;" parent="1" edge="1">
          <mxGeometry relative="1" as="geometry">
            <mxPoint x="590" y="343" as="targetPoint" />
            <mxPoint x="477" y="343.0449111807733" as="sourcePoint" />
          </mxGeometry>
        </mxCell>
        <mxCell id="-5qHYhKTTx6ZgJ0ORQ07-16" style="edgeStyle=none;html=1;fontColor=#000000;shadow=0;strokeColor=#3700CC;fillColor=#6a00ff;strokeWidth=2;" parent="1" edge="1">
          <mxGeometry relative="1" as="geometry">
            <mxPoint x="590" y="516" as="targetPoint" />
            <mxPoint x="478" y="516.0449111807733" as="sourcePoint" />
            <Array as="points" />
          </mxGeometry>
        </mxCell>
        <mxCell id="-5qHYhKTTx6ZgJ0ORQ07-17" value="" style="edgeStyle=segmentEdgeStyle;endArrow=classic;html=1;curved=0;rounded=0;endSize=8;startSize=8;fontColor=#000000;strokeColor=#3700CC;fillColor=#6a00ff;strokeWidth=2;" parent="1" edge="1">
          <mxGeometry width="50" height="50" relative="1" as="geometry">
            <mxPoint x="580" y="643" as="sourcePoint" />
            <mxPoint x="60" y="286" as="targetPoint" />
            <Array as="points">
              <mxPoint x="580" y="643" />
              <mxPoint x="590" y="643" />
              <mxPoint x="590" y="286" />
            </Array>
          </mxGeometry>
        </mxCell>
        <mxCell id="-5qHYhKTTx6ZgJ0ORQ07-18" style="edgeStyle=none;html=1;fontColor=#000000;shadow=0;strokeColor=#3700CC;fillColor=#6a00ff;strokeWidth=2;" parent="1" edge="1">
          <mxGeometry relative="1" as="geometry">
            <mxPoint x="590" y="643" as="targetPoint" />
            <mxPoint x="477" y="642.0449111807733" as="sourcePoint" />
            <Array as="points">
              <mxPoint x="520" y="643" />
            </Array>
          </mxGeometry>
        </mxCell>
        <mxCell id="-5qHYhKTTx6ZgJ0ORQ07-19" value="" style="edgeStyle=none;orthogonalLoop=1;jettySize=auto;html=1;entryX=0.685;entryY=0.992;entryDx=0;entryDy=0;entryPerimeter=0;strokeColor=#006EAF;fillColor=#1ba1e2;strokeWidth=4;" parent="1" edge="1">
          <mxGeometry width="80" relative="1" as="geometry">
            <mxPoint x="40" y="565" as="sourcePoint" />
            <mxPoint x="218.07999999999993" y="564.5" as="targetPoint" />
            <Array as="points">
              <mxPoint x="190" y="565" />
            </Array>
          </mxGeometry>
        </mxCell>
        <mxCell id="-5qHYhKTTx6ZgJ0ORQ07-20" value="" style="edgeStyle=segmentEdgeStyle;endArrow=classic;html=1;curved=0;rounded=0;endSize=8;startSize=8;strokeColor=#006EAF;fillColor=#1ba1e2;strokeWidth=4;" parent="1" edge="1">
          <mxGeometry width="50" height="50" relative="1" as="geometry">
            <mxPoint x="158" y="484" as="sourcePoint" />
            <mxPoint x="218" y="364" as="targetPoint" />
            <Array as="points">
              <mxPoint x="158" y="484" />
              <mxPoint x="158" y="364" />
            </Array>
          </mxGeometry>
        </mxCell>
        <mxCell id="-5qHYhKTTx6ZgJ0ORQ07-21" value="" style="edgeStyle=segmentEdgeStyle;endArrow=classic;html=1;curved=0;rounded=0;endSize=8;startSize=8;strokeColor=#006EAF;fillColor=#1ba1e2;strokeWidth=4;" parent="1" edge="1">
          <mxGeometry width="50" height="50" relative="1" as="geometry">
            <mxPoint x="158" y="494" as="sourcePoint" />
            <mxPoint x="218" y="624" as="targetPoint" />
            <Array as="points">
              <mxPoint x="158" y="494" />
              <mxPoint x="158" y="624" />
            </Array>
          </mxGeometry>
        </mxCell>
        <mxCell id="-5qHYhKTTx6ZgJ0ORQ07-22" value="" style="endArrow=classic;startArrow=none;endFill=1;startFill=0;html=1;verticalAlign=bottom;labelBackgroundColor=none;strokeWidth=2;shadow=0;sketch=0;fontColor=#000000;fillColor=#008a00;strokeColor=#005700;" parent="1" edge="1">
          <mxGeometry width="160" relative="1" as="geometry">
            <mxPoint x="60" y="333" as="sourcePoint" />
            <mxPoint x="215" y="332.5" as="targetPoint" />
          </mxGeometry>
        </mxCell>
        <mxCell id="-5qHYhKTTx6ZgJ0ORQ07-23" value="" style="endArrow=classicThin;startArrow=none;endFill=1;startFill=0;endSize=8;html=1;verticalAlign=bottom;labelBackgroundColor=none;strokeWidth=2;shadow=0;sketch=0;fontColor=#000000;fillColor=#008a00;strokeColor=#005700;" parent="1" edge="1">
          <mxGeometry width="160" relative="1" as="geometry">
            <mxPoint x="60" y="663" as="sourcePoint" />
            <mxPoint x="217" y="663.5" as="targetPoint" />
          </mxGeometry>
        </mxCell>
        <mxCell id="-5qHYhKTTx6ZgJ0ORQ07-24" style="html=1;fontColor=#000000;shadow=0;strokeColor=#006EAF;strokeWidth=4;" parent="1" edge="1">
          <mxGeometry relative="1" as="geometry">
            <mxPoint x="560" y="550" as="targetPoint" />
            <mxPoint x="476" y="550" as="sourcePoint" />
          </mxGeometry>
        </mxCell>
        <mxCell id="-5qHYhKTTx6ZgJ0ORQ07-25" value="" style="endArrow=none;html=1;strokeColor=#006EAF;strokeWidth=2;" parent="1" edge="1">
          <mxGeometry width="50" height="50" relative="1" as="geometry">
            <mxPoint x="66" y="575" as="sourcePoint" />
            <mxPoint x="86" y="555" as="targetPoint" />
          </mxGeometry>
        </mxCell>
        <mxCell id="-5qHYhKTTx6ZgJ0ORQ07-26" value="" style="endArrow=none;html=1;strokeColor=#006EAF;strokeWidth=2;" parent="1" edge="1">
          <mxGeometry width="50" height="50" relative="1" as="geometry">
            <mxPoint x="751" y="562" as="sourcePoint" />
            <mxPoint x="771" y="542" as="targetPoint" />
          </mxGeometry>
        </mxCell>
        <mxCell id="-5qHYhKTTx6ZgJ0ORQ07-27" value="&lt;b&gt;&lt;font style=&quot;font-size: 17px;&quot;&gt;8b&lt;/font&gt;&lt;/b&gt;" style="text;strokeColor=none;align=center;fillColor=none;html=1;verticalAlign=middle;whiteSpace=wrap;rounded=0;fontColor=default;" parent="1" vertex="1">
          <mxGeometry x="50" y="543" width="25" height="24" as="geometry" />
        </mxCell>
        <mxCell id="-5qHYhKTTx6ZgJ0ORQ07-28" value="&lt;b&gt;&lt;font style=&quot;font-size: 17px;&quot;&gt;8b&lt;/font&gt;&lt;/b&gt;" style="text;strokeColor=none;align=center;fillColor=none;html=1;verticalAlign=middle;whiteSpace=wrap;rounded=0;" parent="1" vertex="1">
          <mxGeometry x="717" y="530" width="70" height="25" as="geometry" />
        </mxCell>
        <mxCell id="-5qHYhKTTx6ZgJ0ORQ07-29" value="&lt;b&gt;&lt;font style=&quot;font-size: 17px;&quot;&gt;dto&lt;/font&gt;&lt;/b&gt;" style="text;strokeColor=none;align=center;fillColor=none;html=1;verticalAlign=middle;whiteSpace=wrap;rounded=0;" parent="1" vertex="1">
          <mxGeometry x="689.5" y="560" width="80.5" height="33" as="geometry" />
        </mxCell>
        <mxCell id="-5qHYhKTTx6ZgJ0ORQ07-30" value="&lt;font style=&quot;font-size: 15px;&quot;&gt;&lt;i&gt;mask_read&lt;/i&gt;&lt;/font&gt;" style="text;strokeColor=none;align=center;fillColor=none;html=1;verticalAlign=middle;whiteSpace=wrap;rounded=0;fontSize=17;" parent="1" vertex="1">
          <mxGeometry x="109" y="308" width="60" height="30" as="geometry" />
        </mxCell>
        <mxCell id="-5qHYhKTTx6ZgJ0ORQ07-31" value="&lt;font style=&quot;font-size: 15px;&quot;&gt;&lt;i&gt;emsb_read_m&lt;/i&gt;&lt;/font&gt;" style="text;strokeColor=none;align=center;fillColor=none;html=1;verticalAlign=middle;whiteSpace=wrap;rounded=0;fontSize=17;" parent="1" vertex="1">
          <mxGeometry x="118" y="463" width="60" height="35" as="geometry" />
        </mxCell>
        <mxCell id="-5qHYhKTTx6ZgJ0ORQ07-32" value="&lt;font style=&quot;font-size: 15px;&quot;&gt;&lt;i&gt;emsb_read_l&lt;/i&gt;&lt;/font&gt;" style="text;strokeColor=none;align=center;fillColor=none;html=1;verticalAlign=middle;whiteSpace=wrap;rounded=0;fontSize=17;" parent="1" vertex="1">
          <mxGeometry x="113" y="493" width="60" height="30" as="geometry" />
        </mxCell>
        <mxCell id="-5qHYhKTTx6ZgJ0ORQ07-33" value="&lt;font style=&quot;font-size: 15px;&quot;&gt;&lt;i&gt;lsb_read_m&lt;/i&gt;&lt;/font&gt;" style="text;strokeColor=none;align=center;fillColor=none;html=1;verticalAlign=middle;whiteSpace=wrap;rounded=0;fontSize=17;" parent="1" vertex="1">
          <mxGeometry x="112" y="639" width="60" height="30" as="geometry" />
        </mxCell>
        <mxCell id="-5qHYhKTTx6ZgJ0ORQ07-34" value="&lt;font style=&quot;font-size: 15px;&quot;&gt;&lt;i&gt;lsb_read_l&lt;/i&gt;&lt;/font&gt;" style="text;strokeColor=none;align=center;fillColor=none;html=1;verticalAlign=middle;whiteSpace=wrap;rounded=0;fontSize=17;" parent="1" vertex="1">
          <mxGeometry x="107" y="667" width="60" height="30" as="geometry" />
        </mxCell>
        <mxCell id="-5qHYhKTTx6ZgJ0ORQ07-35" value="&lt;font style=&quot;font-size: 15px;&quot;&gt;&lt;i&gt;mask_can_read&lt;/i&gt;&lt;/font&gt;" style="text;strokeColor=none;align=center;fillColor=none;html=1;verticalAlign=middle;whiteSpace=wrap;rounded=0;fontSize=17;" parent="1" vertex="1">
          <mxGeometry x="501" y="318" width="60" height="30" as="geometry" />
        </mxCell>
        <mxCell id="-5qHYhKTTx6ZgJ0ORQ07-36" value="&lt;font style=&quot;font-size: 15px;&quot;&gt;&lt;i&gt;emsb_can_read&lt;/i&gt;&lt;/font&gt;" style="text;strokeColor=none;align=center;fillColor=none;html=1;verticalAlign=middle;whiteSpace=wrap;rounded=0;fontSize=17;" parent="1" vertex="1">
          <mxGeometry x="501" y="489" width="60" height="30" as="geometry" />
        </mxCell>
        <mxCell id="-5qHYhKTTx6ZgJ0ORQ07-37" value="&lt;font style=&quot;font-size: 15px;&quot;&gt;&lt;i&gt;lsb_can_read&lt;/i&gt;&lt;/font&gt;" style="text;strokeColor=none;align=center;fillColor=none;html=1;verticalAlign=middle;whiteSpace=wrap;rounded=0;fontSize=17;" parent="1" vertex="1">
          <mxGeometry x="498" y="617" width="60" height="30" as="geometry" />
        </mxCell>
        <mxCell id="-5qHYhKTTx6ZgJ0ORQ07-38" value="&lt;b&gt;&lt;font style=&quot;font-size: 17px;&quot;&gt;dti&lt;/font&gt;&lt;/b&gt;" style="text;strokeColor=none;align=center;fillColor=none;html=1;verticalAlign=middle;whiteSpace=wrap;rounded=0;" parent="1" vertex="1">
          <mxGeometry x="50" y="575" width="40" height="30" as="geometry" />
        </mxCell>
        <mxCell id="-5qHYhKTTx6ZgJ0ORQ07-39" value="&lt;font style=&quot;font-size: 15px;&quot;&gt;&lt;i&gt;top_can_read&lt;/i&gt;&lt;/font&gt;" style="text;strokeColor=none;align=center;fillColor=none;html=1;verticalAlign=middle;whiteSpace=wrap;rounded=0;fontSize=17;" parent="1" vertex="1">
          <mxGeometry x="119" y="260" width="60" height="30" as="geometry" />
        </mxCell>
        <mxCell id="-5qHYhKTTx6ZgJ0ORQ07-40" value="" style="line;strokeWidth=4;rotatable=0;dashed=0;labelPosition=right;align=left;verticalAlign=middle;spacingTop=0;spacingLeft=6;points=[];portConstraint=eastwest;fillStyle=solid;strokeColor=#006eaf;fillColor=none;flipH=1;flipV=1;direction=south;" parent="1" vertex="1">
          <mxGeometry x="551" y="549" width="10" height="104" as="geometry" />
        </mxCell>
        <mxCell id="-5qHYhKTTx6ZgJ0ORQ07-41" style="html=1;fontColor=#000000;shadow=0;strokeColor=#006EAF;strokeWidth=4;exitX=0.54;exitY=0.653;exitDx=0;exitDy=0;exitPerimeter=0;entryX=0.617;entryY=1.019;entryDx=0;entryDy=0;entryPerimeter=0;" parent="1" source="-5qHYhKTTx6ZgJ0ORQ07-40" target="-5qHYhKTTx6ZgJ0ORQ07-9" edge="1">
          <mxGeometry relative="1" as="geometry">
            <mxPoint x="623" y="596" as="targetPoint" />
            <mxPoint x="560" y="596" as="sourcePoint" />
          </mxGeometry>
        </mxCell>
        <mxCell id="-5qHYhKTTx6ZgJ0ORQ07-42" value="&lt;font style=&quot;font-size: 15px;&quot;&gt;&lt;i&gt;dto_mask&lt;/i&gt;&lt;/font&gt;" style="text;strokeColor=none;align=center;fillColor=none;html=1;verticalAlign=middle;whiteSpace=wrap;rounded=0;fontSize=17;" parent="1" vertex="1">
          <mxGeometry x="482" y="352" width="60" height="30" as="geometry" />
        </mxCell>
        <mxCell id="-5qHYhKTTx6ZgJ0ORQ07-43" value="&lt;font style=&quot;font-size: 15px;&quot;&gt;&lt;i&gt;dto_msb&lt;/i&gt;&lt;/font&gt;" style="text;strokeColor=none;align=center;fillColor=none;html=1;verticalAlign=middle;whiteSpace=wrap;rounded=0;fontSize=17;" parent="1" vertex="1">
          <mxGeometry x="479" y="545" width="60" height="30" as="geometry" />
        </mxCell>
        <mxCell id="-5qHYhKTTx6ZgJ0ORQ07-44" value="&lt;font style=&quot;font-size: 15px;&quot;&gt;&lt;i&gt;dto_lsb&lt;/i&gt;&lt;/font&gt;" style="text;strokeColor=none;align=center;fillColor=none;html=1;verticalAlign=middle;whiteSpace=wrap;rounded=0;fontSize=17;" parent="1" vertex="1">
          <mxGeometry x="476" y="650" width="60" height="30" as="geometry" />
        </mxCell>
        <mxCell id="-5qHYhKTTx6ZgJ0ORQ07-45" style="html=1;fontColor=#000000;shadow=0;strokeColor=#006EAF;strokeWidth=4;" parent="1" edge="1">
          <mxGeometry relative="1" as="geometry">
            <mxPoint x="650" y="482" as="targetPoint" />
            <mxPoint x="570" y="482" as="sourcePoint" />
          </mxGeometry>
        </mxCell>
        <mxCell id="-5qHYhKTTx6ZgJ0ORQ07-46" value="&lt;b&gt;&lt;font style=&quot;font-size: 17px;&quot;&gt;8b&lt;/font&gt;&lt;/b&gt;" style="text;strokeColor=none;align=center;fillColor=none;html=1;verticalAlign=middle;whiteSpace=wrap;rounded=0;" parent="1" vertex="1">
          <mxGeometry x="578" y="460" width="62" height="25" as="geometry" />
        </mxCell>
        <mxCell id="-5qHYhKTTx6ZgJ0ORQ07-47" value="" style="endArrow=none;html=1;strokeColor=#006EAF;strokeWidth=2;" parent="1" edge="1">
          <mxGeometry width="50" height="50" relative="1" as="geometry">
            <mxPoint x="612" y="489" as="sourcePoint" />
            <mxPoint x="632" y="469" as="targetPoint" />
          </mxGeometry>
        </mxCell>
        <mxCell id="-5qHYhKTTx6ZgJ0ORQ07-48" value="" style="endArrow=classic;startArrow=none;endFill=1;startFill=0;html=1;verticalAlign=bottom;labelBackgroundColor=none;strokeWidth=2;shadow=0;sketch=0;fontColor=#000000;fillColor=#008a00;strokeColor=#005700;" parent="1" edge="1">
          <mxGeometry width="160" relative="1" as="geometry">
            <mxPoint x="810" y="363" as="sourcePoint" />
            <mxPoint x="710" y="363" as="targetPoint" />
            <Array as="points" />
          </mxGeometry>
        </mxCell>
        <mxCell id="-5qHYhKTTx6ZgJ0ORQ07-49" value="&lt;b&gt;&lt;font style=&quot;font-size: 17px;&quot;&gt;give_output&lt;/font&gt;&lt;/b&gt;" style="text;strokeColor=none;align=center;fillColor=none;html=1;verticalAlign=middle;whiteSpace=wrap;rounded=0;" parent="1" vertex="1">
          <mxGeometry x="700" y="332" width="125" height="30" as="geometry" />
        </mxCell>
        <mxCell id="-5qHYhKTTx6ZgJ0ORQ07-50" value="&lt;font style=&quot;font-size: 15px;&quot;&gt;E-MSB1&lt;/font&gt;" style="verticalAlign=top;align=left;shape=cube;size=10;direction=south;html=1;boundedLbl=1;spacingLeft=5;rounded=1;fillColor=#7CFA9B;fontColor=#000000;strokeColor=#000000;" parent="1" vertex="1">
          <mxGeometry x="229" y="525" width="74" height="38" as="geometry" />
        </mxCell>
        <mxCell id="-5qHYhKTTx6ZgJ0ORQ07-51" value="" style="endArrow=classicThin;startArrow=none;endFill=1;startFill=0;endSize=8;html=1;verticalAlign=bottom;labelBackgroundColor=none;strokeWidth=2;shadow=0;sketch=0;fontColor=#000000;fillColor=#008a00;strokeColor=#005700;" parent="1" edge="1">
          <mxGeometry width="160" relative="1" as="geometry">
            <mxPoint x="59" y="543" as="sourcePoint" />
            <mxPoint x="215" y="542.5" as="targetPoint" />
          </mxGeometry>
        </mxCell>
        <mxCell id="-5qHYhKTTx6ZgJ0ORQ07-52" value="&lt;font style=&quot;font-size: 15px;&quot;&gt;&lt;i&gt;emsb_read_both&lt;/i&gt;&lt;/font&gt;" style="text;strokeColor=none;align=center;fillColor=none;html=1;verticalAlign=middle;whiteSpace=wrap;rounded=0;fontSize=17;" parent="1" vertex="1">
          <mxGeometry x="126" y="517" width="60" height="30" as="geometry" />
        </mxCell>
        <mxCell id="-5qHYhKTTx6ZgJ0ORQ07-53" value="" style="endArrow=classic;startArrow=classic;html=1;rounded=0;strokeColor=#006eaf;fontColor=default;exitX=0.125;exitY=0.502;exitDx=0;exitDy=0;exitPerimeter=0;" parent="1" edge="1">
          <mxGeometry width="50" height="50" relative="1" as="geometry">
            <mxPoint x="328.9749999999999" y="420" as="sourcePoint" />
            <mxPoint x="329" y="395" as="targetPoint" />
          </mxGeometry>
        </mxCell>
        <mxCell id="-5qHYhKTTx6ZgJ0ORQ07-54" value="&lt;font style=&quot;font-size: 14px;&quot;&gt;TUNSTALL CODING&lt;/font&gt;" style="verticalAlign=top;align=center;shape=cube;size=10;direction=south;html=1;boundedLbl=1;spacingLeft=5;rounded=1;fillColor=#7CFA9B;fontColor=#000000;strokeColor=#000000;" parent="1" vertex="1">
          <mxGeometry x="428" y="419" width="152" height="34" as="geometry" />
        </mxCell>
        <mxCell id="-5qHYhKTTx6ZgJ0ORQ07-55" value="" style="endArrow=classic;startArrow=classic;html=1;rounded=0;strokeColor=#006eaf;fontColor=default;" parent="1" edge="1">
          <mxGeometry width="50" height="50" relative="1" as="geometry">
            <mxPoint x="329" y="478" as="sourcePoint" />
            <mxPoint x="329" y="458" as="targetPoint" />
          </mxGeometry>
        </mxCell>
        <mxCell id="-5qHYhKTTx6ZgJ0ORQ07-56" value="&lt;font style=&quot;font-size: 15px;&quot;&gt;E-MSB3&lt;/font&gt;" style="verticalAlign=top;align=left;shape=cube;size=10;direction=south;html=1;boundedLbl=1;spacingLeft=5;rounded=1;fillColor=#7CFA9B;fontColor=#000000;strokeColor=#000000;" parent="1" vertex="1">
          <mxGeometry x="385" y="525" width="74" height="38" as="geometry" />
        </mxCell>
        <mxCell id="-5qHYhKTTx6ZgJ0ORQ07-57" value="&lt;font style=&quot;font-size: 15px;&quot;&gt;E-MSB2&lt;/font&gt;" style="verticalAlign=top;align=left;shape=cube;size=10;direction=south;html=1;boundedLbl=1;spacingLeft=5;rounded=1;fillColor=#7CFA9B;fontColor=#000000;strokeColor=#000000;" parent="1" vertex="1">
          <mxGeometry x="307" y="525" width="74" height="38" as="geometry" />
        </mxCell>
        <mxCell id="-5qHYhKTTx6ZgJ0ORQ07-58" value="&lt;font style=&quot;font-size: 15px;&quot;&gt;REGISTER&lt;/font&gt;" style="verticalAlign=top;align=left;shape=cube;size=10;direction=south;html=1;boundedLbl=1;spacingLeft=5;rounded=1;fillColor=#7CFA9B;fontColor=#000000;strokeColor=#000000;" parent="1" vertex="1">
          <mxGeometry x="297" y="649" width="101" height="44" as="geometry" />
        </mxCell>
        <mxCell id="-5qHYhKTTx6ZgJ0ORQ07-59" value="&lt;font size=&quot;1&quot; style=&quot;&quot; color=&quot;#000000&quot;&gt;&lt;b style=&quot;font-size: 19px;&quot;&gt;Coordinator&lt;/b&gt;&lt;/font&gt;" style="verticalAlign=top;align=left;shape=cube;size=10;direction=south;fontStyle=0;html=1;boundedLbl=1;spacingLeft=5;rounded=1;fillColor=#95F0E1;strokeColor=#10739e;strokeWidth=2;" parent="1" vertex="1">
          <mxGeometry x="269.5" y="418" width="137.5" height="40" as="geometry" />
        </mxCell>
        <mxCell id="-5qHYhKTTx6ZgJ0ORQ07-60" value="" style="endArrow=classic;startArrow=classic;html=1;rounded=0;strokeColor=#006eaf;fontColor=default;" parent="1" edge="1">
          <mxGeometry width="50" height="50" relative="1" as="geometry">
            <mxPoint x="427" y="437.5" as="sourcePoint" />
            <mxPoint x="407" y="437.5" as="targetPoint" />
          </mxGeometry>
        </mxCell>
        <mxCell id="-5qHYhKTTx6ZgJ0ORQ07-61" value="" style="endArrow=classicThin;startArrow=none;endFill=1;startFill=0;endSize=8;html=1;verticalAlign=bottom;labelBackgroundColor=none;strokeWidth=2;shadow=0;sketch=0;fontColor=#000000;fillColor=#008a00;strokeColor=#005700;" parent="1" edge="1">
          <mxGeometry width="160" relative="1" as="geometry">
            <mxPoint x="61" y="693" as="sourcePoint" />
            <mxPoint x="218" y="693.5" as="targetPoint" />
          </mxGeometry>
        </mxCell>
        <mxCell id="-5qHYhKTTx6ZgJ0ORQ07-62" value="" style="rounded=0;whiteSpace=wrap;html=1;fillStyle=solid;strokeColor=#000000;strokeWidth=3;fillColor=none;" parent="1" vertex="1">
          <mxGeometry x="65" y="1041.5" width="625" height="361" as="geometry" />
        </mxCell>
        <mxCell id="-5qHYhKTTx6ZgJ0ORQ07-63" value="&lt;font style=&quot;font-size: 15px;&quot;&gt;&lt;i&gt;&#39;0&#39;&lt;/i&gt;&lt;/font&gt;" style="text;strokeColor=none;align=center;fillColor=none;html=1;verticalAlign=middle;whiteSpace=wrap;rounded=0;fontSize=17;" parent="1" vertex="1">
          <mxGeometry x="541" y="1155" width="21" height="30" as="geometry" />
        </mxCell>
        <mxCell id="-5qHYhKTTx6ZgJ0ORQ07-64" value="&lt;font size=&quot;1&quot; color=&quot;#000000&quot;&gt;&lt;b style=&quot;font-size: 18px;&quot;&gt;LSB Register&lt;/b&gt;&lt;/font&gt;" style="verticalAlign=top;align=center;shape=cube;size=10;direction=south;fontStyle=0;html=1;boundedLbl=1;spacingLeft=5;rounded=1;fillColor=#95F0E1;strokeColor=#10739e;strokeWidth=2;" parent="1" vertex="1">
          <mxGeometry x="193" y="1293" width="260" height="100" as="geometry" />
        </mxCell>
        <mxCell id="-5qHYhKTTx6ZgJ0ORQ07-68" value="&lt;font size=&quot;1&quot; color=&quot;#000000&quot;&gt;&lt;b style=&quot;font-size: 18px;&quot;&gt;&amp;nbsp; &amp;nbsp; &amp;nbsp; &amp;nbsp; &amp;nbsp; &amp;nbsp; MSB Decoder&lt;/b&gt;&lt;/font&gt;" style="verticalAlign=top;align=left;shape=cube;size=10;direction=south;fontStyle=0;html=1;boundedLbl=1;spacingLeft=5;rounded=1;fillColor=#95F0E1;strokeColor=#10739e;strokeWidth=2;" parent="1" vertex="1">
          <mxGeometry x="191" y="1090" width="260" height="178" as="geometry" />
        </mxCell>
        <mxCell id="-5qHYhKTTx6ZgJ0ORQ07-69" style="html=1;fontColor=#000000;shadow=0;strokeColor=#006EAF;strokeWidth=4;rounded=0;" parent="1" source="-5qHYhKTTx6ZgJ0ORQ07-64" edge="1">
          <mxGeometry relative="1" as="geometry">
            <mxPoint x="535" y="1344" as="targetPoint" />
            <mxPoint x="481.4" y="1343.8600000000001" as="sourcePoint" />
          </mxGeometry>
        </mxCell>
        <mxCell id="-5qHYhKTTx6ZgJ0ORQ07-70" value="" style="shape=trapezoid;perimeter=trapezoidPerimeter;whiteSpace=wrap;html=1;fixedSize=1;strokeColor=#10739e;fillColor=#95F0E1;direction=south;strokeWidth=2;" parent="1" vertex="1">
          <mxGeometry x="640" y="1113" width="42" height="279" as="geometry" />
        </mxCell>
        <mxCell id="-5qHYhKTTx6ZgJ0ORQ07-72" style="edgeStyle=none;html=1;fontColor=#000000;shadow=0;strokeColor=#006EAF;strokeWidth=4;exitX=0.466;exitY=-0.004;exitDx=0;exitDy=0;exitPerimeter=0;" parent="1" edge="1" source="-5qHYhKTTx6ZgJ0ORQ07-70">
          <mxGeometry relative="1" as="geometry">
            <mxPoint x="785" y="1243" as="targetPoint" />
            <mxPoint x="666" y="1242.9049111807733" as="sourcePoint" />
            <Array as="points">
              <mxPoint x="689" y="1243" />
            </Array>
          </mxGeometry>
        </mxCell>
        <mxCell id="-5qHYhKTTx6ZgJ0ORQ07-73" value="" style="endArrow=classicThin;startArrow=none;endFill=1;startFill=0;endSize=8;html=1;verticalAlign=bottom;labelBackgroundColor=none;strokeWidth=2;shadow=0;sketch=0;fontColor=#000000;fillColor=#008a00;strokeColor=#005700;" parent="1" edge="1">
          <mxGeometry width="160" relative="1" as="geometry">
            <mxPoint x="35" y="1183" as="sourcePoint" />
            <mxPoint x="193" y="1183" as="targetPoint" />
          </mxGeometry>
        </mxCell>
        <mxCell id="-5qHYhKTTx6ZgJ0ORQ07-74" value="" style="endArrow=classicThin;startArrow=none;endFill=1;startFill=0;endSize=8;html=1;verticalAlign=bottom;labelBackgroundColor=none;strokeWidth=2;shadow=0;sketch=0;fontColor=#000000;fillColor=#008a00;strokeColor=#005700;" parent="1" edge="1">
          <mxGeometry width="160" relative="1" as="geometry">
            <mxPoint x="35" y="1208" as="sourcePoint" />
            <mxPoint x="191" y="1207.5" as="targetPoint" />
          </mxGeometry>
        </mxCell>
        <mxCell id="-5qHYhKTTx6ZgJ0ORQ07-75" value="&lt;font size=&quot;1&quot; color=&quot;#000000&quot;&gt;&lt;b style=&quot;font-size: 15px;&quot;&gt;Selector&lt;/b&gt;&lt;/font&gt;" style="text;strokeColor=none;align=center;fillColor=none;html=1;verticalAlign=middle;whiteSpace=wrap;rounded=0;direction=west;spacingRight=0;labelPosition=center;verticalLabelPosition=middle;flipV=0;flipH=1;rotation=90;" parent="1" vertex="1">
          <mxGeometry x="631" y="1238" width="60" height="14" as="geometry" />
        </mxCell>
        <mxCell id="-5qHYhKTTx6ZgJ0ORQ07-77" style="edgeStyle=none;html=1;fontColor=#000000;shadow=0;strokeColor=#3700CC;fillColor=#6a00ff;strokeWidth=2;" parent="1" edge="1">
          <mxGeometry relative="1" as="geometry">
            <mxPoint x="565" y="1206" as="targetPoint" />
            <mxPoint x="453" y="1206.0449111807734" as="sourcePoint" />
            <Array as="points" />
          </mxGeometry>
        </mxCell>
        <mxCell id="-5qHYhKTTx6ZgJ0ORQ07-78" value="" style="edgeStyle=segmentEdgeStyle;endArrow=classic;html=1;curved=0;rounded=0;endSize=8;startSize=8;fontColor=#000000;strokeColor=#3700CC;fillColor=#6a00ff;strokeWidth=2;" parent="1" edge="1">
          <mxGeometry width="50" height="50" relative="1" as="geometry">
            <mxPoint x="576.5" y="1329" as="sourcePoint" />
            <mxPoint x="51.5" y="1076" as="targetPoint" />
            <Array as="points">
              <mxPoint x="586.5" y="1329" />
              <mxPoint x="586.5" y="1076" />
              <mxPoint x="56.5" y="1076" />
            </Array>
          </mxGeometry>
        </mxCell>
        <mxCell id="-5qHYhKTTx6ZgJ0ORQ07-79" style="edgeStyle=none;html=1;fontColor=#000000;shadow=0;strokeColor=#3700CC;fillColor=#6a00ff;strokeWidth=2;" parent="1" edge="1">
          <mxGeometry relative="1" as="geometry">
            <mxPoint x="587" y="1329" as="targetPoint" />
            <mxPoint x="480" y="1329" as="sourcePoint" />
            <Array as="points">
              <mxPoint x="517" y="1329" />
            </Array>
          </mxGeometry>
        </mxCell>
        <mxCell id="-5qHYhKTTx6ZgJ0ORQ07-80" value="" style="edgeStyle=none;orthogonalLoop=1;jettySize=auto;html=1;entryX=0.685;entryY=0.992;entryDx=0;entryDy=0;entryPerimeter=0;strokeColor=#006EAF;fillColor=#1ba1e2;strokeWidth=4;" parent="1" edge="1">
          <mxGeometry width="80" relative="1" as="geometry">
            <mxPoint x="15" y="1255" as="sourcePoint" />
            <mxPoint x="193.07999999999993" y="1254.5" as="targetPoint" />
            <Array as="points">
              <mxPoint x="165" y="1255" />
            </Array>
          </mxGeometry>
        </mxCell>
        <mxCell id="-5qHYhKTTx6ZgJ0ORQ07-82" value="" style="edgeStyle=segmentEdgeStyle;endArrow=classic;html=1;curved=0;rounded=0;endSize=8;startSize=8;strokeColor=#006EAF;fillColor=#1ba1e2;strokeWidth=4;" parent="1" edge="1">
          <mxGeometry width="50" height="50" relative="1" as="geometry">
            <mxPoint x="130" y="1257" as="sourcePoint" />
            <mxPoint x="193" y="1321" as="targetPoint" />
            <Array as="points">
              <mxPoint x="130" y="1321" />
            </Array>
          </mxGeometry>
        </mxCell>
        <mxCell id="-5qHYhKTTx6ZgJ0ORQ07-84" value="" style="endArrow=classicThin;startArrow=none;endFill=1;startFill=0;endSize=8;html=1;verticalAlign=bottom;labelBackgroundColor=none;strokeWidth=2;shadow=0;sketch=0;fontColor=#000000;fillColor=#008a00;strokeColor=#005700;" parent="1" edge="1">
          <mxGeometry width="160" relative="1" as="geometry">
            <mxPoint x="35" y="1353" as="sourcePoint" />
            <mxPoint x="192" y="1353.5" as="targetPoint" />
          </mxGeometry>
        </mxCell>
        <mxCell id="-5qHYhKTTx6ZgJ0ORQ07-85" style="html=1;fontColor=#000000;shadow=0;strokeColor=#006EAF;strokeWidth=4;" parent="1" edge="1">
          <mxGeometry relative="1" as="geometry">
            <mxPoint x="535" y="1240" as="targetPoint" />
            <mxPoint x="451" y="1240" as="sourcePoint" />
          </mxGeometry>
        </mxCell>
        <mxCell id="-5qHYhKTTx6ZgJ0ORQ07-86" value="" style="endArrow=none;html=1;strokeColor=#006EAF;strokeWidth=2;" parent="1" edge="1">
          <mxGeometry width="50" height="50" relative="1" as="geometry">
            <mxPoint x="41" y="1265" as="sourcePoint" />
            <mxPoint x="61" y="1245" as="targetPoint" />
          </mxGeometry>
        </mxCell>
        <mxCell id="-5qHYhKTTx6ZgJ0ORQ07-87" value="" style="endArrow=none;html=1;strokeColor=#006EAF;strokeWidth=2;" parent="1" edge="1">
          <mxGeometry width="50" height="50" relative="1" as="geometry">
            <mxPoint x="743" y="1252" as="sourcePoint" />
            <mxPoint x="763" y="1232" as="targetPoint" />
          </mxGeometry>
        </mxCell>
        <mxCell id="-5qHYhKTTx6ZgJ0ORQ07-88" value="&lt;b&gt;&lt;font style=&quot;font-size: 17px;&quot;&gt;8b&lt;/font&gt;&lt;/b&gt;" style="text;strokeColor=none;align=center;fillColor=none;html=1;verticalAlign=middle;whiteSpace=wrap;rounded=0;fontColor=default;" parent="1" vertex="1">
          <mxGeometry x="25" y="1233" width="25" height="24" as="geometry" />
        </mxCell>
        <mxCell id="-5qHYhKTTx6ZgJ0ORQ07-89" value="&lt;b&gt;&lt;font style=&quot;font-size: 17px;&quot;&gt;8b&lt;/font&gt;&lt;/b&gt;" style="text;strokeColor=none;align=center;fillColor=none;html=1;verticalAlign=middle;whiteSpace=wrap;rounded=0;" parent="1" vertex="1">
          <mxGeometry x="713" y="1220" width="70" height="25" as="geometry" />
        </mxCell>
        <mxCell id="-5qHYhKTTx6ZgJ0ORQ07-90" value="&lt;b&gt;&lt;font style=&quot;font-size: 17px;&quot;&gt;dto&lt;/font&gt;&lt;/b&gt;" style="text;strokeColor=none;align=center;fillColor=none;html=1;verticalAlign=middle;whiteSpace=wrap;rounded=0;" parent="1" vertex="1">
          <mxGeometry x="716" y="1248" width="80.5" height="33" as="geometry" />
        </mxCell>
        <mxCell id="-5qHYhKTTx6ZgJ0ORQ07-92" value="&lt;font style=&quot;font-size: 15px;&quot;&gt;&lt;i&gt;emsb_read_m&lt;/i&gt;&lt;/font&gt;" style="text;strokeColor=none;align=center;fillColor=none;html=1;verticalAlign=middle;whiteSpace=wrap;rounded=0;fontSize=17;" parent="1" vertex="1">
          <mxGeometry x="84" y="1153" width="60" height="35" as="geometry" />
        </mxCell>
        <mxCell id="-5qHYhKTTx6ZgJ0ORQ07-93" value="&lt;font style=&quot;font-size: 15px;&quot;&gt;&lt;i&gt;emsb_read_l&lt;/i&gt;&lt;/font&gt;" style="text;strokeColor=none;align=center;fillColor=none;html=1;verticalAlign=middle;whiteSpace=wrap;rounded=0;fontSize=17;" parent="1" vertex="1">
          <mxGeometry x="79" y="1183" width="60" height="30" as="geometry" />
        </mxCell>
        <mxCell id="-5qHYhKTTx6ZgJ0ORQ07-94" value="&lt;font style=&quot;font-size: 15px;&quot;&gt;&lt;i&gt;lsb_read_m&lt;/i&gt;&lt;/font&gt;" style="text;strokeColor=none;align=center;fillColor=none;html=1;verticalAlign=middle;whiteSpace=wrap;rounded=0;fontSize=17;" parent="1" vertex="1">
          <mxGeometry x="78" y="1329" width="60" height="30" as="geometry" />
        </mxCell>
        <mxCell id="-5qHYhKTTx6ZgJ0ORQ07-95" value="&lt;font style=&quot;font-size: 15px;&quot;&gt;&lt;i&gt;lsb_read_l&lt;/i&gt;&lt;/font&gt;" style="text;strokeColor=none;align=center;fillColor=none;html=1;verticalAlign=middle;whiteSpace=wrap;rounded=0;fontSize=17;" parent="1" vertex="1">
          <mxGeometry x="73" y="1357" width="60" height="30" as="geometry" />
        </mxCell>
        <mxCell id="-5qHYhKTTx6ZgJ0ORQ07-97" value="&lt;font style=&quot;font-size: 15px;&quot;&gt;&lt;i&gt;emsb_can_read&lt;/i&gt;&lt;/font&gt;" style="text;strokeColor=none;align=center;fillColor=none;html=1;verticalAlign=middle;whiteSpace=wrap;rounded=0;fontSize=17;" parent="1" vertex="1">
          <mxGeometry x="476" y="1179" width="60" height="30" as="geometry" />
        </mxCell>
        <mxCell id="-5qHYhKTTx6ZgJ0ORQ07-98" value="&lt;font style=&quot;font-size: 15px;&quot;&gt;&lt;i&gt;lsb_can_read&lt;/i&gt;&lt;/font&gt;" style="text;strokeColor=none;align=center;fillColor=none;html=1;verticalAlign=middle;whiteSpace=wrap;rounded=0;fontSize=17;" parent="1" vertex="1">
          <mxGeometry x="500" y="1304" width="60" height="30" as="geometry" />
        </mxCell>
        <mxCell id="-5qHYhKTTx6ZgJ0ORQ07-99" value="&lt;b&gt;&lt;font style=&quot;font-size: 17px;&quot;&gt;dti&lt;/font&gt;&lt;/b&gt;" style="text;strokeColor=none;align=center;fillColor=none;html=1;verticalAlign=middle;whiteSpace=wrap;rounded=0;" parent="1" vertex="1">
          <mxGeometry x="25" y="1265" width="40" height="30" as="geometry" />
        </mxCell>
        <mxCell id="-5qHYhKTTx6ZgJ0ORQ07-100" value="&lt;font style=&quot;font-size: 15px;&quot;&gt;&lt;i&gt;top_can_read&lt;/i&gt;&lt;/font&gt;" style="text;strokeColor=none;align=center;fillColor=none;html=1;verticalAlign=middle;whiteSpace=wrap;rounded=0;fontSize=17;" parent="1" vertex="1">
          <mxGeometry x="85" y="1055" width="60" height="30" as="geometry" />
        </mxCell>
        <mxCell id="-5qHYhKTTx6ZgJ0ORQ07-101" value="" style="line;strokeWidth=4;rotatable=0;dashed=0;labelPosition=right;align=left;verticalAlign=middle;spacingTop=0;spacingLeft=6;points=[];portConstraint=eastwest;fillStyle=solid;strokeColor=#006eaf;fillColor=none;flipH=1;flipV=1;direction=south;" parent="1" vertex="1">
          <mxGeometry x="526" y="1239" width="10" height="104" as="geometry" />
        </mxCell>
        <mxCell id="-5qHYhKTTx6ZgJ0ORQ07-102" style="html=1;fontColor=#000000;shadow=0;strokeColor=#006EAF;strokeWidth=4;exitX=0.54;exitY=0.653;exitDx=0;exitDy=0;exitPerimeter=0;entryX=0.617;entryY=1.019;entryDx=0;entryDy=0;entryPerimeter=0;" parent="1" source="-5qHYhKTTx6ZgJ0ORQ07-101" target="-5qHYhKTTx6ZgJ0ORQ07-70" edge="1">
          <mxGeometry relative="1" as="geometry">
            <mxPoint x="598" y="1286" as="targetPoint" />
            <mxPoint x="535" y="1286" as="sourcePoint" />
          </mxGeometry>
        </mxCell>
        <mxCell id="-5qHYhKTTx6ZgJ0ORQ07-104" value="&lt;font style=&quot;font-size: 15px;&quot;&gt;&lt;i&gt;dto_msb&lt;/i&gt;&lt;/font&gt;" style="text;strokeColor=none;align=center;fillColor=none;html=1;verticalAlign=middle;whiteSpace=wrap;rounded=0;fontSize=17;" parent="1" vertex="1">
          <mxGeometry x="454" y="1235" width="60" height="30" as="geometry" />
        </mxCell>
        <mxCell id="-5qHYhKTTx6ZgJ0ORQ07-105" value="&lt;font style=&quot;font-size: 15px;&quot;&gt;&lt;i&gt;dto_lsb&lt;/i&gt;&lt;/font&gt;" style="text;strokeColor=none;align=center;fillColor=none;html=1;verticalAlign=middle;whiteSpace=wrap;rounded=0;fontSize=17;" parent="1" vertex="1">
          <mxGeometry x="451" y="1340" width="60" height="30" as="geometry" />
        </mxCell>
        <mxCell id="-5qHYhKTTx6ZgJ0ORQ07-106" style="html=1;fontColor=#000000;shadow=0;strokeColor=#006EAF;strokeWidth=4;" parent="1" edge="1">
          <mxGeometry relative="1" as="geometry">
            <mxPoint x="640" y="1172" as="targetPoint" />
            <mxPoint x="560" y="1172" as="sourcePoint" />
          </mxGeometry>
        </mxCell>
        <mxCell id="-5qHYhKTTx6ZgJ0ORQ07-107" value="&lt;b&gt;&lt;font style=&quot;font-size: 17px;&quot;&gt;8b&lt;/font&gt;&lt;/b&gt;" style="text;strokeColor=none;align=center;fillColor=none;html=1;verticalAlign=middle;whiteSpace=wrap;rounded=0;" parent="1" vertex="1">
          <mxGeometry x="568" y="1150" width="62" height="25" as="geometry" />
        </mxCell>
        <mxCell id="-5qHYhKTTx6ZgJ0ORQ07-108" value="" style="endArrow=none;html=1;strokeColor=#006EAF;strokeWidth=2;" parent="1" edge="1">
          <mxGeometry width="50" height="50" relative="1" as="geometry">
            <mxPoint x="602" y="1179" as="sourcePoint" />
            <mxPoint x="622" y="1159" as="targetPoint" />
          </mxGeometry>
        </mxCell>
        <mxCell id="-5qHYhKTTx6ZgJ0ORQ07-109" value="" style="endArrow=classic;startArrow=none;endFill=1;startFill=0;html=1;verticalAlign=bottom;labelBackgroundColor=none;strokeWidth=2;shadow=0;sketch=0;fontColor=#000000;fillColor=#008a00;strokeColor=#005700;entryX=0.04;entryY=0.429;entryDx=0;entryDy=0;entryPerimeter=0;" parent="1" edge="1" target="-5qHYhKTTx6ZgJ0ORQ07-70">
          <mxGeometry width="160" relative="1" as="geometry">
            <mxPoint x="800" y="1053" as="sourcePoint" />
            <mxPoint x="700" y="1053" as="targetPoint" />
            <Array as="points">
              <mxPoint x="725" y="1053" />
              <mxPoint x="664" y="1053" />
            </Array>
          </mxGeometry>
        </mxCell>
        <mxCell id="-5qHYhKTTx6ZgJ0ORQ07-110" value="&lt;font style=&quot;font-size: 15px;&quot;&gt;E-MSB1&lt;/font&gt;" style="verticalAlign=top;align=left;shape=cube;size=10;direction=south;html=1;boundedLbl=1;spacingLeft=5;rounded=1;fillColor=#7CFA9B;fontColor=#000000;strokeColor=#000000;" parent="1" vertex="1">
          <mxGeometry x="204" y="1215" width="74" height="38" as="geometry" />
        </mxCell>
        <mxCell id="-5qHYhKTTx6ZgJ0ORQ07-111" value="" style="endArrow=classicThin;startArrow=none;endFill=1;startFill=0;endSize=8;html=1;verticalAlign=bottom;labelBackgroundColor=none;strokeWidth=2;shadow=0;sketch=0;fontColor=#000000;fillColor=#008a00;strokeColor=#005700;" parent="1" edge="1">
          <mxGeometry width="160" relative="1" as="geometry">
            <mxPoint x="34" y="1233" as="sourcePoint" />
            <mxPoint x="190" y="1232.5" as="targetPoint" />
          </mxGeometry>
        </mxCell>
        <mxCell id="-5qHYhKTTx6ZgJ0ORQ07-112" value="&lt;font style=&quot;font-size: 15px;&quot;&gt;&lt;i&gt;emsb_read_both&lt;/i&gt;&lt;/font&gt;" style="text;strokeColor=none;align=center;fillColor=none;html=1;verticalAlign=middle;whiteSpace=wrap;rounded=0;fontSize=17;" parent="1" vertex="1">
          <mxGeometry x="92" y="1207" width="60" height="30" as="geometry" />
        </mxCell>
        <mxCell id="-5qHYhKTTx6ZgJ0ORQ07-113" value="" style="endArrow=classic;startArrow=classic;html=1;rounded=0;strokeColor=#006eaf;fontColor=default;exitX=0.125;exitY=0.502;exitDx=0;exitDy=0;exitPerimeter=0;" parent="1" edge="1">
          <mxGeometry width="50" height="50" relative="1" as="geometry">
            <mxPoint x="256.7249999999999" y="1157" as="sourcePoint" />
            <mxPoint x="256.75" y="1132" as="targetPoint" />
          </mxGeometry>
        </mxCell>
        <mxCell id="-5qHYhKTTx6ZgJ0ORQ07-114" value="&lt;font style=&quot;font-size: 14px;&quot;&gt;TUNSTALL CODING&lt;/font&gt;" style="verticalAlign=top;align=center;shape=cube;size=10;direction=south;html=1;boundedLbl=1;spacingLeft=5;rounded=1;fillColor=#7CFA9B;fontColor=#000000;strokeColor=#000000;" parent="1" vertex="1">
          <mxGeometry x="346" y="1155" width="152" height="34" as="geometry" />
        </mxCell>
        <mxCell id="-5qHYhKTTx6ZgJ0ORQ07-115" value="" style="endArrow=classic;startArrow=classic;html=1;rounded=0;strokeColor=#006eaf;fontColor=default;" parent="1" edge="1">
          <mxGeometry width="50" height="50" relative="1" as="geometry">
            <mxPoint x="256.75" y="1215" as="sourcePoint" />
            <mxPoint x="256.75" y="1195" as="targetPoint" />
          </mxGeometry>
        </mxCell>
        <mxCell id="-5qHYhKTTx6ZgJ0ORQ07-116" value="&lt;font style=&quot;font-size: 15px;&quot;&gt;E-MSB3&lt;/font&gt;" style="verticalAlign=top;align=left;shape=cube;size=10;direction=south;html=1;boundedLbl=1;spacingLeft=5;rounded=1;fillColor=#7CFA9B;fontColor=#000000;strokeColor=#000000;" parent="1" vertex="1">
          <mxGeometry x="360" y="1215" width="74" height="38" as="geometry" />
        </mxCell>
        <mxCell id="-5qHYhKTTx6ZgJ0ORQ07-117" value="&lt;font style=&quot;font-size: 15px;&quot;&gt;E-MSB2&lt;/font&gt;" style="verticalAlign=top;align=left;shape=cube;size=10;direction=south;html=1;boundedLbl=1;spacingLeft=5;rounded=1;fillColor=#7CFA9B;fontColor=#000000;strokeColor=#000000;" parent="1" vertex="1">
          <mxGeometry x="282" y="1215" width="74" height="38" as="geometry" />
        </mxCell>
        <mxCell id="-5qHYhKTTx6ZgJ0ORQ07-118" value="&lt;font style=&quot;font-size: 15px;&quot;&gt;REGISTER&lt;/font&gt;" style="verticalAlign=top;align=left;shape=cube;size=10;direction=south;html=1;boundedLbl=1;spacingLeft=5;rounded=1;fillColor=#7CFA9B;fontColor=#000000;strokeColor=#000000;" parent="1" vertex="1">
          <mxGeometry x="272" y="1339" width="101" height="44" as="geometry" />
        </mxCell>
        <mxCell id="-5qHYhKTTx6ZgJ0ORQ07-119" value="&lt;font size=&quot;1&quot; style=&quot;&quot; color=&quot;#000000&quot;&gt;&lt;b style=&quot;font-size: 19px;&quot;&gt;Coordinator&lt;/b&gt;&lt;/font&gt;" style="verticalAlign=top;align=left;shape=cube;size=10;direction=south;fontStyle=0;html=1;boundedLbl=1;spacingLeft=5;rounded=1;fillColor=#95F0E1;strokeColor=#10739e;strokeWidth=2;" parent="1" vertex="1">
          <mxGeometry x="197.25" y="1155" width="137.5" height="40" as="geometry" />
        </mxCell>
        <mxCell id="-5qHYhKTTx6ZgJ0ORQ07-120" value="" style="endArrow=classic;startArrow=classic;html=1;rounded=0;strokeColor=#006eaf;fontColor=default;" parent="1" edge="1">
          <mxGeometry width="50" height="50" relative="1" as="geometry">
            <mxPoint x="345" y="1173.5" as="sourcePoint" />
            <mxPoint x="325" y="1173.5" as="targetPoint" />
          </mxGeometry>
        </mxCell>
        <mxCell id="-5qHYhKTTx6ZgJ0ORQ07-121" value="" style="endArrow=classicThin;startArrow=none;endFill=1;startFill=0;endSize=8;html=1;verticalAlign=bottom;labelBackgroundColor=none;strokeWidth=2;shadow=0;sketch=0;fontColor=#000000;fillColor=#008a00;strokeColor=#005700;" parent="1" edge="1">
          <mxGeometry width="160" relative="1" as="geometry">
            <mxPoint x="36" y="1383" as="sourcePoint" />
            <mxPoint x="193" y="1383.5" as="targetPoint" />
          </mxGeometry>
        </mxCell>
        <mxCell id="T6mUiUoYfnSLYQJ3MDiq-1" value="&lt;b&gt;&lt;font style=&quot;font-size: 17px;&quot;&gt;give_output&lt;/font&gt;&lt;/b&gt;" style="text;strokeColor=none;align=center;fillColor=none;html=1;verticalAlign=middle;whiteSpace=wrap;rounded=0;" vertex="1" parent="1">
          <mxGeometry x="705" y="1022" width="125" height="30" as="geometry" />
        </mxCell>
      </root>
    </mxGraphModel>
  </diagram>
</mxfile>
